<mxfile host="app.diagrams.net" modified="2023-10-03T20:26:37.230Z" agent="Mozilla/5.0 (Windows NT 10.0; Win64; x64) AppleWebKit/537.36 (KHTML, like Gecko) Chrome/117.0.0.0 Safari/537.36" etag="9fSnGs7uSsXzQtRgY2qE" version="22.0.0" type="device">
  <diagram name="Page-1" id="n24HdKT9l4Ujf7CyrbVR">
    <mxGraphModel dx="1984" dy="606" grid="1" gridSize="10" guides="1" tooltips="1" connect="1" arrows="1" fold="1" page="1" pageScale="1" pageWidth="850" pageHeight="1100" math="0" shadow="0">
      <root>
        <mxCell id="0" />
        <mxCell id="1" parent="0" />
        <mxCell id="PWPaU8b2PSkyWPBf4VYL-1" value="opportunities" style="rounded=0;whiteSpace=wrap;html=1;" parent="1" vertex="1">
          <mxGeometry x="510" y="120" width="90" height="40" as="geometry" />
        </mxCell>
        <mxCell id="PWPaU8b2PSkyWPBf4VYL-3" style="rounded=0;orthogonalLoop=1;jettySize=auto;html=1;entryX=0;entryY=0.5;entryDx=0;entryDy=0;endArrow=none;endFill=0;" parent="1" source="PWPaU8b2PSkyWPBf4VYL-2" target="PWPaU8b2PSkyWPBf4VYL-1" edge="1">
          <mxGeometry relative="1" as="geometry" />
        </mxCell>
        <mxCell id="PWPaU8b2PSkyWPBf4VYL-2" value="&lt;u&gt;name&lt;/u&gt;" style="ellipse;whiteSpace=wrap;html=1;" parent="1" vertex="1">
          <mxGeometry x="455" y="25" width="60" height="30" as="geometry" />
        </mxCell>
        <mxCell id="PWPaU8b2PSkyWPBf4VYL-5" style="rounded=0;orthogonalLoop=1;jettySize=auto;html=1;entryX=0.25;entryY=0;entryDx=0;entryDy=0;endArrow=none;endFill=0;" parent="1" source="PWPaU8b2PSkyWPBf4VYL-4" target="PWPaU8b2PSkyWPBf4VYL-1" edge="1">
          <mxGeometry relative="1" as="geometry" />
        </mxCell>
        <mxCell id="PWPaU8b2PSkyWPBf4VYL-4" value="description" style="ellipse;whiteSpace=wrap;html=1;" parent="1" vertex="1">
          <mxGeometry x="515" y="25" width="80" height="40" as="geometry" />
        </mxCell>
        <mxCell id="PWPaU8b2PSkyWPBf4VYL-7" value="" style="rounded=0;orthogonalLoop=1;jettySize=auto;html=1;endArrow=none;endFill=0;" parent="1" source="PWPaU8b2PSkyWPBf4VYL-6" target="PWPaU8b2PSkyWPBf4VYL-1" edge="1">
          <mxGeometry relative="1" as="geometry" />
        </mxCell>
        <mxCell id="PWPaU8b2PSkyWPBf4VYL-6" value="active_status" style="ellipse;whiteSpace=wrap;html=1;" parent="1" vertex="1">
          <mxGeometry x="590" y="30" width="90" height="30" as="geometry" />
        </mxCell>
        <mxCell id="PWPaU8b2PSkyWPBf4VYL-9" value="rpi_departments" style="rounded=0;whiteSpace=wrap;html=1;" parent="1" vertex="1">
          <mxGeometry x="-160" y="120" width="90" height="40" as="geometry" />
        </mxCell>
        <mxCell id="PWPaU8b2PSkyWPBf4VYL-10" style="rounded=0;orthogonalLoop=1;jettySize=auto;html=1;entryX=0;entryY=0.5;entryDx=0;entryDy=0;endArrow=none;endFill=0;" parent="1" source="PWPaU8b2PSkyWPBf4VYL-11" target="PWPaU8b2PSkyWPBf4VYL-9" edge="1">
          <mxGeometry relative="1" as="geometry" />
        </mxCell>
        <mxCell id="PWPaU8b2PSkyWPBf4VYL-11" value="&lt;u&gt;name&lt;/u&gt;" style="ellipse;whiteSpace=wrap;html=1;" parent="1" vertex="1">
          <mxGeometry x="-280" y="125" width="60" height="30" as="geometry" />
        </mxCell>
        <mxCell id="PWPaU8b2PSkyWPBf4VYL-12" style="rounded=0;orthogonalLoop=1;jettySize=auto;html=1;entryX=0.25;entryY=0;entryDx=0;entryDy=0;endArrow=none;endFill=0;" parent="1" source="PWPaU8b2PSkyWPBf4VYL-13" target="PWPaU8b2PSkyWPBf4VYL-9" edge="1">
          <mxGeometry relative="1" as="geometry" />
        </mxCell>
        <mxCell id="PWPaU8b2PSkyWPBf4VYL-13" value="description" style="ellipse;whiteSpace=wrap;html=1;" parent="1" vertex="1">
          <mxGeometry x="-250" y="70" width="80" height="40" as="geometry" />
        </mxCell>
        <mxCell id="PWPaU8b2PSkyWPBf4VYL-16" value="lab_runner" style="rounded=0;whiteSpace=wrap;html=1;" parent="1" vertex="1">
          <mxGeometry x="170" y="120" width="90" height="40" as="geometry" />
        </mxCell>
        <mxCell id="PWPaU8b2PSkyWPBf4VYL-17" style="rounded=0;orthogonalLoop=1;jettySize=auto;html=1;entryX=0.25;entryY=0;entryDx=0;entryDy=0;endArrow=none;endFill=0;" parent="1" source="PWPaU8b2PSkyWPBf4VYL-18" target="PWPaU8b2PSkyWPBf4VYL-16" edge="1">
          <mxGeometry relative="1" as="geometry" />
        </mxCell>
        <mxCell id="PWPaU8b2PSkyWPBf4VYL-18" value="&lt;u&gt;rcs_id&lt;/u&gt;" style="ellipse;whiteSpace=wrap;html=1;" parent="1" vertex="1">
          <mxGeometry x="120" y="55" width="60" height="30" as="geometry" />
        </mxCell>
        <mxCell id="PWPaU8b2PSkyWPBf4VYL-19" style="rounded=0;orthogonalLoop=1;jettySize=auto;html=1;entryX=0.667;entryY=0;entryDx=0;entryDy=0;endArrow=none;endFill=0;entryPerimeter=0;" parent="1" source="PWPaU8b2PSkyWPBf4VYL-20" target="PWPaU8b2PSkyWPBf4VYL-16" edge="1">
          <mxGeometry relative="1" as="geometry" />
        </mxCell>
        <mxCell id="PWPaU8b2PSkyWPBf4VYL-20" value="name" style="ellipse;whiteSpace=wrap;html=1;" parent="1" vertex="1">
          <mxGeometry x="190" y="45" width="80" height="40" as="geometry" />
        </mxCell>
        <mxCell id="PWPaU8b2PSkyWPBf4VYL-21" value="contact_links" style="rounded=0;whiteSpace=wrap;html=1;" parent="1" vertex="1">
          <mxGeometry x="20" y="260" width="90" height="40" as="geometry" />
        </mxCell>
        <mxCell id="PWPaU8b2PSkyWPBf4VYL-22" style="rounded=0;orthogonalLoop=1;jettySize=auto;html=1;entryX=0;entryY=0.5;entryDx=0;entryDy=0;endArrow=none;endFill=0;" parent="1" source="PWPaU8b2PSkyWPBf4VYL-23" target="PWPaU8b2PSkyWPBf4VYL-21" edge="1">
          <mxGeometry relative="1" as="geometry" />
        </mxCell>
        <mxCell id="PWPaU8b2PSkyWPBf4VYL-23" value="&lt;u&gt;contact_type&lt;/u&gt;" style="ellipse;whiteSpace=wrap;html=1;" parent="1" vertex="1">
          <mxGeometry x="-150" y="265" width="110" height="30" as="geometry" />
        </mxCell>
        <mxCell id="PWPaU8b2PSkyWPBf4VYL-24" style="rounded=0;orthogonalLoop=1;jettySize=auto;html=1;entryX=0.25;entryY=0;entryDx=0;entryDy=0;endArrow=none;endFill=0;" parent="1" source="PWPaU8b2PSkyWPBf4VYL-25" target="PWPaU8b2PSkyWPBf4VYL-21" edge="1">
          <mxGeometry relative="1" as="geometry" />
        </mxCell>
        <mxCell id="PWPaU8b2PSkyWPBf4VYL-25" value="&lt;u&gt;contact_link&lt;/u&gt;" style="ellipse;whiteSpace=wrap;html=1;" parent="1" vertex="1">
          <mxGeometry x="-70" y="210" width="80" height="40" as="geometry" />
        </mxCell>
        <mxCell id="PWPaU8b2PSkyWPBf4VYL-26" value="courses" style="rounded=0;whiteSpace=wrap;html=1;" parent="1" vertex="1">
          <mxGeometry x="260" y="360" width="90" height="40" as="geometry" />
        </mxCell>
        <mxCell id="PWPaU8b2PSkyWPBf4VYL-27" style="rounded=0;orthogonalLoop=1;jettySize=auto;html=1;entryX=0;entryY=0.5;entryDx=0;entryDy=0;endArrow=none;endFill=0;" parent="1" source="PWPaU8b2PSkyWPBf4VYL-28" target="PWPaU8b2PSkyWPBf4VYL-26" edge="1">
          <mxGeometry relative="1" as="geometry" />
        </mxCell>
        <mxCell id="PWPaU8b2PSkyWPBf4VYL-28" value="course_name" style="ellipse;whiteSpace=wrap;html=1;" parent="1" vertex="1">
          <mxGeometry x="110" y="365" width="90" height="30" as="geometry" />
        </mxCell>
        <mxCell id="PWPaU8b2PSkyWPBf4VYL-29" style="rounded=0;orthogonalLoop=1;jettySize=auto;html=1;entryX=0.25;entryY=0;entryDx=0;entryDy=0;endArrow=none;endFill=0;" parent="1" source="PWPaU8b2PSkyWPBf4VYL-30" target="PWPaU8b2PSkyWPBf4VYL-26" edge="1">
          <mxGeometry relative="1" as="geometry" />
        </mxCell>
        <mxCell id="PWPaU8b2PSkyWPBf4VYL-30" value="&lt;u&gt;course_code&lt;/u&gt;" style="ellipse;whiteSpace=wrap;html=1;" parent="1" vertex="1">
          <mxGeometry x="170" y="310" width="80" height="40" as="geometry" />
        </mxCell>
        <mxCell id="PWPaU8b2PSkyWPBf4VYL-31" value="majors" style="rounded=0;whiteSpace=wrap;html=1;" parent="1" vertex="1">
          <mxGeometry x="207.5" y="440" width="85" height="30" as="geometry" />
        </mxCell>
        <mxCell id="PWPaU8b2PSkyWPBf4VYL-34" style="rounded=0;orthogonalLoop=1;jettySize=auto;html=1;entryX=0;entryY=0.5;entryDx=0;entryDy=0;endArrow=none;endFill=0;" parent="1" source="PWPaU8b2PSkyWPBf4VYL-33" target="PWPaU8b2PSkyWPBf4VYL-31" edge="1">
          <mxGeometry relative="1" as="geometry" />
        </mxCell>
        <mxCell id="PWPaU8b2PSkyWPBf4VYL-33" value="&lt;u&gt;major&lt;/u&gt;" style="ellipse;whiteSpace=wrap;html=1;" parent="1" vertex="1">
          <mxGeometry x="67.5" y="440" width="90" height="30" as="geometry" />
        </mxCell>
        <mxCell id="PWPaU8b2PSkyWPBf4VYL-35" value="class_years" style="rounded=0;whiteSpace=wrap;html=1;" parent="1" vertex="1">
          <mxGeometry x="200" y="520" width="85" height="30" as="geometry" />
        </mxCell>
        <mxCell id="PWPaU8b2PSkyWPBf4VYL-36" style="rounded=0;orthogonalLoop=1;jettySize=auto;html=1;entryX=0;entryY=0.5;entryDx=0;entryDy=0;endArrow=none;endFill=0;" parent="1" source="PWPaU8b2PSkyWPBf4VYL-37" target="PWPaU8b2PSkyWPBf4VYL-35" edge="1">
          <mxGeometry relative="1" as="geometry" />
        </mxCell>
        <mxCell id="PWPaU8b2PSkyWPBf4VYL-37" value="&lt;u&gt;class_years&lt;/u&gt;" style="ellipse;whiteSpace=wrap;html=1;" parent="1" vertex="1">
          <mxGeometry x="60" y="520" width="90" height="30" as="geometry" />
        </mxCell>
        <mxCell id="PWPaU8b2PSkyWPBf4VYL-38" value="experiences" style="rounded=0;whiteSpace=wrap;html=1;" parent="1" vertex="1">
          <mxGeometry x="207.5" y="590" width="85" height="30" as="geometry" />
        </mxCell>
        <mxCell id="PWPaU8b2PSkyWPBf4VYL-39" style="rounded=0;orthogonalLoop=1;jettySize=auto;html=1;entryX=0;entryY=0.5;entryDx=0;entryDy=0;endArrow=none;endFill=0;" parent="1" source="PWPaU8b2PSkyWPBf4VYL-40" target="PWPaU8b2PSkyWPBf4VYL-38" edge="1">
          <mxGeometry relative="1" as="geometry" />
        </mxCell>
        <mxCell id="PWPaU8b2PSkyWPBf4VYL-40" value="&lt;u&gt;description&lt;/u&gt;" style="ellipse;whiteSpace=wrap;html=1;" parent="1" vertex="1">
          <mxGeometry x="67.5" y="590" width="90" height="30" as="geometry" />
        </mxCell>
        <mxCell id="PWPaU8b2PSkyWPBf4VYL-41" value="pay_compensation_info" style="rounded=0;whiteSpace=wrap;html=1;" parent="1" vertex="1">
          <mxGeometry x="830" y="620" width="140" height="30" as="geometry" />
        </mxCell>
        <mxCell id="PWPaU8b2PSkyWPBf4VYL-42" style="rounded=0;orthogonalLoop=1;jettySize=auto;html=1;entryX=0;entryY=0.5;entryDx=0;entryDy=0;endArrow=none;endFill=0;" parent="1" source="PWPaU8b2PSkyWPBf4VYL-43" target="PWPaU8b2PSkyWPBf4VYL-41" edge="1">
          <mxGeometry relative="1" as="geometry" />
        </mxCell>
        <mxCell id="PWPaU8b2PSkyWPBf4VYL-43" value="&lt;u&gt;pay_usd_per_hour&lt;/u&gt;" style="ellipse;whiteSpace=wrap;html=1;" parent="1" vertex="1">
          <mxGeometry x="680" y="620" width="130" height="30" as="geometry" />
        </mxCell>
        <mxCell id="PWPaU8b2PSkyWPBf4VYL-44" value="credit_compensation_info" style="rounded=0;whiteSpace=wrap;html=1;" parent="1" vertex="1">
          <mxGeometry x="850" y="482.5" width="140" height="30" as="geometry" />
        </mxCell>
        <mxCell id="PWPaU8b2PSkyWPBf4VYL-48" value="" style="rounded=0;orthogonalLoop=1;jettySize=auto;html=1;endArrow=none;endFill=0;" parent="1" source="PWPaU8b2PSkyWPBf4VYL-45" target="PWPaU8b2PSkyWPBf4VYL-44" edge="1">
          <mxGeometry relative="1" as="geometry" />
        </mxCell>
        <mxCell id="PWPaU8b2PSkyWPBf4VYL-45" value="&lt;u&gt;number_of_credits&lt;/u&gt;" style="ellipse;whiteSpace=wrap;html=1;" parent="1" vertex="1">
          <mxGeometry x="700" y="482.5" width="130" height="30" as="geometry" />
        </mxCell>
        <mxCell id="PWPaU8b2PSkyWPBf4VYL-47" style="rounded=0;orthogonalLoop=1;jettySize=auto;html=1;entryX=0.25;entryY=1;entryDx=0;entryDy=0;endArrow=none;endFill=0;exitX=0.973;exitY=0.238;exitDx=0;exitDy=0;exitPerimeter=0;" parent="1" source="PWPaU8b2PSkyWPBf4VYL-46" target="PWPaU8b2PSkyWPBf4VYL-44" edge="1">
          <mxGeometry relative="1" as="geometry" />
        </mxCell>
        <mxCell id="PWPaU8b2PSkyWPBf4VYL-46" value="&lt;u&gt;course_code&lt;/u&gt;" style="ellipse;whiteSpace=wrap;html=1;" parent="1" vertex="1">
          <mxGeometry x="720" y="537.5" width="130" height="30" as="geometry" />
        </mxCell>
        <mxCell id="PWPaU8b2PSkyWPBf4VYL-51" value="application_due_dates" style="rounded=0;whiteSpace=wrap;html=1;" parent="1" vertex="1">
          <mxGeometry x="830" y="250" width="140" height="30" as="geometry" />
        </mxCell>
        <mxCell id="PWPaU8b2PSkyWPBf4VYL-52" style="rounded=0;orthogonalLoop=1;jettySize=auto;html=1;entryX=0;entryY=0.5;entryDx=0;entryDy=0;endArrow=none;endFill=0;" parent="1" source="PWPaU8b2PSkyWPBf4VYL-53" target="PWPaU8b2PSkyWPBf4VYL-51" edge="1">
          <mxGeometry relative="1" as="geometry" />
        </mxCell>
        <mxCell id="PWPaU8b2PSkyWPBf4VYL-53" value="&lt;u&gt;date&lt;/u&gt;" style="ellipse;whiteSpace=wrap;html=1;" parent="1" vertex="1">
          <mxGeometry x="750" y="250" width="60" height="30" as="geometry" />
        </mxCell>
        <mxCell id="PWPaU8b2PSkyWPBf4VYL-54" value="semesters" style="rounded=0;whiteSpace=wrap;html=1;" parent="1" vertex="1">
          <mxGeometry x="810" y="130" width="140" height="30" as="geometry" />
        </mxCell>
        <mxCell id="PWPaU8b2PSkyWPBf4VYL-55" value="" style="rounded=0;orthogonalLoop=1;jettySize=auto;html=1;endArrow=none;endFill=0;" parent="1" source="PWPaU8b2PSkyWPBf4VYL-56" target="PWPaU8b2PSkyWPBf4VYL-54" edge="1">
          <mxGeometry relative="1" as="geometry" />
        </mxCell>
        <mxCell id="PWPaU8b2PSkyWPBf4VYL-56" value="&lt;u&gt;season&lt;/u&gt;" style="ellipse;whiteSpace=wrap;html=1;" parent="1" vertex="1">
          <mxGeometry x="730" y="130" width="60" height="30" as="geometry" />
        </mxCell>
        <mxCell id="PWPaU8b2PSkyWPBf4VYL-57" style="rounded=0;orthogonalLoop=1;jettySize=auto;html=1;entryX=0.25;entryY=1;entryDx=0;entryDy=0;endArrow=none;endFill=0;exitX=0.973;exitY=0.238;exitDx=0;exitDy=0;exitPerimeter=0;" parent="1" source="PWPaU8b2PSkyWPBf4VYL-58" target="PWPaU8b2PSkyWPBf4VYL-54" edge="1">
          <mxGeometry relative="1" as="geometry" />
        </mxCell>
        <mxCell id="PWPaU8b2PSkyWPBf4VYL-58" value="&lt;u&gt;year&lt;/u&gt;" style="ellipse;whiteSpace=wrap;html=1;" parent="1" vertex="1">
          <mxGeometry x="760" y="185" width="50" height="30" as="geometry" />
        </mxCell>
        <mxCell id="9Bz6uLzKAc4YuErI7Sx_-2" style="rounded=0;orthogonalLoop=1;jettySize=auto;html=1;endArrow=none;endFill=0;exitX=0;exitY=0.5;exitDx=0;exitDy=0;" edge="1" parent="1" source="9Bz6uLzKAc4YuErI7Sx_-1" target="PWPaU8b2PSkyWPBf4VYL-16">
          <mxGeometry relative="1" as="geometry" />
        </mxCell>
        <mxCell id="9Bz6uLzKAc4YuErI7Sx_-5" style="edgeStyle=none;shape=connector;rounded=0;orthogonalLoop=1;jettySize=auto;html=1;entryX=0;entryY=1;entryDx=0;entryDy=0;labelBackgroundColor=default;strokeColor=default;align=center;verticalAlign=middle;fontFamily=Helvetica;fontSize=11;fontColor=default;endArrow=none;endFill=0;exitX=1;exitY=0.5;exitDx=0;exitDy=0;" edge="1" parent="1" source="9Bz6uLzKAc4YuErI7Sx_-1" target="PWPaU8b2PSkyWPBf4VYL-1">
          <mxGeometry relative="1" as="geometry" />
        </mxCell>
        <mxCell id="9Bz6uLzKAc4YuErI7Sx_-1" value="promotes" style="rhombus;whiteSpace=wrap;html=1;" vertex="1" parent="1">
          <mxGeometry x="325" y="115" width="100" height="50" as="geometry" />
        </mxCell>
        <mxCell id="9Bz6uLzKAc4YuErI7Sx_-6" value="&lt;span style=&quot;color: rgb(0, 0, 0); font-family: Helvetica; font-size: 12px; font-style: normal; font-variant-ligatures: normal; font-variant-caps: normal; font-weight: 400; letter-spacing: normal; orphans: 2; text-align: center; text-indent: 0px; text-transform: none; widows: 2; word-spacing: 0px; -webkit-text-stroke-width: 0px; background-color: rgb(251, 251, 251); text-decoration-thickness: initial; text-decoration-style: initial; text-decoration-color: initial; float: none; display: inline !important;&quot;&gt;0..N&lt;/span&gt;" style="text;whiteSpace=wrap;html=1;fontSize=11;fontFamily=Helvetica;fontColor=default;" vertex="1" parent="1">
          <mxGeometry x="270" y="110" width="30" height="20" as="geometry" />
        </mxCell>
        <mxCell id="9Bz6uLzKAc4YuErI7Sx_-7" value="&lt;span style=&quot;color: rgb(0, 0, 0); font-family: Helvetica; font-size: 12px; font-style: normal; font-variant-ligatures: normal; font-variant-caps: normal; font-weight: 400; letter-spacing: normal; orphans: 2; text-align: center; text-indent: 0px; text-transform: none; widows: 2; word-spacing: 0px; -webkit-text-stroke-width: 0px; background-color: rgb(251, 251, 251); text-decoration-thickness: initial; text-decoration-style: initial; text-decoration-color: initial; float: none; display: inline !important;&quot;&gt;0..N&lt;/span&gt;" style="text;whiteSpace=wrap;html=1;fontSize=11;fontFamily=Helvetica;fontColor=default;" vertex="1" parent="1">
          <mxGeometry x="470" y="130" width="30" height="30" as="geometry" />
        </mxCell>
        <mxCell id="9Bz6uLzKAc4YuErI7Sx_-9" style="edgeStyle=none;shape=connector;rounded=0;orthogonalLoop=1;jettySize=auto;html=1;labelBackgroundColor=default;strokeColor=default;align=center;verticalAlign=middle;fontFamily=Helvetica;fontSize=11;fontColor=default;endArrow=none;endFill=0;" edge="1" parent="1" source="9Bz6uLzKAc4YuErI7Sx_-8" target="PWPaU8b2PSkyWPBf4VYL-16">
          <mxGeometry relative="1" as="geometry" />
        </mxCell>
        <mxCell id="9Bz6uLzKAc4YuErI7Sx_-10" style="edgeStyle=none;shape=connector;rounded=0;orthogonalLoop=1;jettySize=auto;html=1;entryX=1;entryY=0.5;entryDx=0;entryDy=0;labelBackgroundColor=default;strokeColor=default;align=center;verticalAlign=middle;fontFamily=Helvetica;fontSize=11;fontColor=default;endArrow=none;endFill=0;" edge="1" parent="1" source="9Bz6uLzKAc4YuErI7Sx_-8" target="PWPaU8b2PSkyWPBf4VYL-9">
          <mxGeometry relative="1" as="geometry" />
        </mxCell>
        <mxCell id="9Bz6uLzKAc4YuErI7Sx_-8" value="isPartOf" style="rhombus;whiteSpace=wrap;html=1;fontFamily=Helvetica;fontSize=11;fontColor=default;" vertex="1" parent="1">
          <mxGeometry x="10" y="120" width="80" height="40" as="geometry" />
        </mxCell>
        <mxCell id="9Bz6uLzKAc4YuErI7Sx_-11" value="0..N" style="text;html=1;strokeColor=none;fillColor=none;align=center;verticalAlign=middle;whiteSpace=wrap;rounded=0;fontSize=11;fontFamily=Helvetica;fontColor=default;" vertex="1" parent="1">
          <mxGeometry x="-70" y="115" width="40" height="25" as="geometry" />
        </mxCell>
        <mxCell id="9Bz6uLzKAc4YuErI7Sx_-12" value="0..N" style="text;html=1;align=center;verticalAlign=middle;resizable=0;points=[];autosize=1;strokeColor=none;fillColor=none;fontSize=11;fontFamily=Helvetica;fontColor=default;" vertex="1" parent="1">
          <mxGeometry x="130" y="112.5" width="40" height="30" as="geometry" />
        </mxCell>
        <mxCell id="9Bz6uLzKAc4YuErI7Sx_-16" style="edgeStyle=none;shape=connector;rounded=0;orthogonalLoop=1;jettySize=auto;html=1;entryX=0.75;entryY=0;entryDx=0;entryDy=0;labelBackgroundColor=default;strokeColor=default;align=center;verticalAlign=middle;fontFamily=Helvetica;fontSize=11;fontColor=default;endArrow=none;endFill=0;" edge="1" parent="1" source="9Bz6uLzKAc4YuErI7Sx_-13" target="PWPaU8b2PSkyWPBf4VYL-21">
          <mxGeometry relative="1" as="geometry" />
        </mxCell>
        <mxCell id="9Bz6uLzKAc4YuErI7Sx_-13" value="hasLink" style="rhombus;whiteSpace=wrap;html=1;fontFamily=Helvetica;fontSize=11;fontColor=default;" vertex="1" parent="1">
          <mxGeometry x="100" y="190" width="80" height="40" as="geometry" />
        </mxCell>
        <mxCell id="9Bz6uLzKAc4YuErI7Sx_-14" style="edgeStyle=none;shape=connector;rounded=0;orthogonalLoop=1;jettySize=auto;html=1;entryX=0.56;entryY=-0.048;entryDx=0;entryDy=0;entryPerimeter=0;labelBackgroundColor=default;strokeColor=default;align=center;verticalAlign=middle;fontFamily=Helvetica;fontSize=11;fontColor=default;endArrow=none;endFill=0;" edge="1" parent="1" source="PWPaU8b2PSkyWPBf4VYL-16" target="9Bz6uLzKAc4YuErI7Sx_-13">
          <mxGeometry relative="1" as="geometry" />
        </mxCell>
        <mxCell id="9Bz6uLzKAc4YuErI7Sx_-15" value="0..N" style="text;html=1;align=center;verticalAlign=middle;resizable=0;points=[];autosize=1;strokeColor=none;fillColor=none;fontSize=11;fontFamily=Helvetica;fontColor=default;" vertex="1" parent="1">
          <mxGeometry x="170" y="155" width="40" height="30" as="geometry" />
        </mxCell>
        <mxCell id="9Bz6uLzKAc4YuErI7Sx_-17" value="0..N" style="text;html=1;align=center;verticalAlign=middle;resizable=0;points=[];autosize=1;strokeColor=none;fillColor=none;fontSize=11;fontFamily=Helvetica;fontColor=default;" vertex="1" parent="1">
          <mxGeometry x="100" y="235" width="40" height="30" as="geometry" />
        </mxCell>
      </root>
    </mxGraphModel>
  </diagram>
</mxfile>
